<?xml version="1.0" encoding="UTF-8"?>
<svg xmlns="http://www.w3.org/2000/svg" xmlns:xlink="http://www.w3.org/1999/xlink" width="300px" height="225px" viewBox="0 0 300 225" version="1.1">
<defs>
<clipPath id="clip1">
  <path d="M 72.132812 32.398438 L 227.867188 32.398438 L 227.867188 192.601562 L 72.132812 192.601562 Z M 72.132812 32.398438 "/>
</clipPath>
<clipPath id="clip2">
  <path d="M 120.71875 68.699219 L 179.277344 68.699219 L 179.277344 156.300781 L 120.71875 156.300781 Z M 120.71875 68.699219 "/>
</clipPath>
</defs>
<g id="surface1">
<rect x="0" y="0" width="300" height="225" style="fill:rgb(81.176471%,32.156863%,37.647059%);fill-opacity:1;stroke:none;"/>
<g clip-path="url(#clip1)" clip-rule="nonzero">
<path style=" stroke:none;fill-rule:nonzero;fill:rgb(100%,100%,100%);fill-opacity:1;" d="M 82.332031 135.480469 L 84.148438 137.746094 L 83.242188 134.800781 C 83.011719 133.4375 81.425781 135.027344 82.332031 135.480469 M 84.375 134.121094 C 85.054688 135.253906 85.734375 136.386719 85.734375 137.519531 C 85.734375 139.109375 87.097656 139.789062 88.226562 140.242188 C 86.640625 138.425781 85.734375 133.4375 84.375 134.121094 M 171.421875 38.007812 C 175.273438 38.007812 178.902344 37.550781 182.984375 38.457031 C 192.957031 40.953125 201.34375 45.941406 207.011719 52.964844 L 222.878906 78.355469 C 223.558594 84.703125 224.921875 91.730469 224.691406 99.4375 C 226.28125 99.4375 226.050781 97.167969 227.867188 96.71875 C 226.050781 101.25 225.144531 106.917969 224.691406 113.492188 C 223.558594 109.867188 224.691406 104.421875 224.921875 101.476562 C 223.332031 103.972656 222.425781 102.15625 222.425781 101.023438 C 222.652344 99.210938 221.746094 99.4375 221.066406 98.757812 C 218.574219 96.488281 216.988281 93.996094 215.171875 90.144531 C 216.308594 87.195312 216.53125 82.890625 212.90625 80.621094 C 211.773438 79.941406 210.414062 78.808594 209.734375 76.996094 C 208.824219 74.5 207.238281 71.554688 207.691406 67.703125 C 207.917969 66.566406 204.289062 70.195312 202.25 68.609375 C 193.410156 62.488281 184.570312 55.460938 173.914062 49.566406 C 168.25 49.566406 164.167969 47.527344 162.125 45.03125 C 160.316406 42.765625 161.675781 39.816406 164.394531 39.59375 C 165.980469 39.59375 167.796875 39.136719 169.15625 40.046875 C 169.382812 39.136719 170.289062 38.007812 171.421875 38.007812 M 148.980469 32.792969 L 149.433594 33.019531 C 151.703125 33.472656 152.832031 36.644531 155.328125 35.511719 C 155.328125 37.097656 155.554688 38.6875 155.101562 39.816406 C 154.421875 41.632812 152.378906 41.632812 150.792969 41.632812 C 135.605469 40.726562 126.765625 47.070312 117.472656 52.515625 C 114.976562 54.101562 112.257812 55.234375 110.21875 57.273438 C 100.46875 66.34375 89.816406 74.726562 87.320312 91.503906 L 85.28125 110.089844 C 85.054688 112.132812 82.789062 114.171875 83.242188 116.664062 L 84.828125 127.773438 C 83.242188 126.183594 82.332031 128.226562 82.789062 129.132812 C 83.011719 129.8125 83.921875 132.078125 85.28125 130.039062 C 87.09375 133.441406 88.90625 140.011719 91.402344 142.960938 C 99.109375 152.03125 109.082031 160.1875 117.242188 168.347656 C 119.285156 167.898438 120.871094 167.898438 121.324219 166.535156 C 122.003906 167.898438 120.644531 169.257812 119.511719 169.484375 C 123.136719 171.75 127.21875 173.792969 132.660156 174.242188 C 139.683594 174.695312 146.257812 175.832031 152.382812 177.417969 C 155.554688 176.511719 158.726562 176.058594 162.125 175.832031 C 163.261719 175.832031 163.941406 174.015625 165.300781 173.5625 L 165.527344 171.296875 C 166.890625 173.335938 166.660156 170.617188 165.753906 169.257812 C 167.339844 170.617188 167.796875 171.75 168.476562 172.65625 C 168.476562 171.976562 170.289062 169.484375 170.289062 172.429688 L 170.742188 169.484375 C 171.421875 169.027344 171.648438 171.976562 172.328125 169.9375 C 173.007812 167.898438 174.367188 169.484375 175.730469 168.804688 C 175.273438 169.707031 175.503906 171.523438 177.089844 170.390625 L 178.902344 168.804688 C 180.035156 171.523438 181.847656 170.390625 182.757812 169.9375 C 192.730469 163.589844 202.703125 156.109375 212.222656 148.628906 L 212 151.574219 L 213.132812 147.945312 C 214.265625 149.082031 215.171875 148.175781 215.625 147.496094 C 216.988281 145.226562 218.796875 142.960938 221.746094 140.921875 C 218.117188 150.667969 213.8125 158.375 208.371094 164.722656 L 206.105469 167.441406 C 206.105469 169.03125 205.652344 171.070312 203.839844 171.296875 C 202.929688 171.523438 201.117188 170.84375 199.757812 172.203125 C 199.078125 173.109375 201.34375 174.921875 199.53125 173.5625 C 197.945312 172.429688 196.355469 173.5625 194.542969 174.015625 C 193.183594 174.472656 195.449219 175.832031 195.90625 176.738281 C 196.355469 177.644531 196.808594 178.550781 196.585938 179.683594 L 194.089844 176.964844 C 191.144531 178.550781 189.332031 181.496094 186.835938 183.765625 C 185.703125 184.671875 186.15625 186.257812 186.15625 187.617188 C 184.570312 187.617188 182.757812 187.164062 181.847656 188.070312 C 181.167969 188.980469 181.398438 190.339844 181.398438 191.699219 C 179.128906 191.472656 178.902344 188.070312 176.863281 188.75 C 174.824219 189.203125 172.554688 189.429688 170.742188 190.566406 C 172.101562 193.285156 168.476562 191.699219 168.929688 192.152344 C 165.527344 190.109375 162.582031 188.523438 158.953125 189.886719 C 151.246094 187.390625 141.726562 188.523438 134.699219 189.429688 C 134.699219 188.300781 134.925781 187.164062 134.472656 186.9375 C 134.019531 188.070312 132.660156 187.617188 132.886719 187.617188 C 128.578125 184.671875 124.269531 182.855469 119.738281 180.363281 C 115.65625 180.816406 111.804688 178.777344 110.667969 177.644531 C 107.496094 174.695312 103.871094 176.28125 100.921875 175.601562 C 94.574219 174.015625 92.308594 167.441406 91.628906 162.910156 C 91.175781 160.644531 89.363281 159.734375 88.679688 159.964844 C 85.734375 150.441406 81.203125 141.828125 77.574219 132.988281 C 76.667969 130.71875 76.894531 128.453125 76.894531 125.960938 C 78.027344 126.414062 79.160156 126.183594 78.933594 124.597656 C 77.800781 117.121094 75.078125 111.453125 72.132812 106.011719 C 73.71875 98.304688 73.949219 89.234375 77.574219 82.4375 C 80.746094 76.316406 86.640625 73.140625 90.722656 67.925781 C 92.082031 66.113281 92.082031 63.621094 93.441406 62.035156 C 97.976562 57.5 102.507812 52.738281 107.496094 48.660156 C 109.761719 46.847656 112.484375 48.660156 115.882812 47.980469 C 117.015625 43.898438 121.550781 40.273438 125.855469 41.40625 C 127.671875 41.859375 131.300781 37.097656 132.429688 36.644531 C 134.246094 35.964844 133.339844 38.457031 133.339844 40.046875 C 137.644531 36.644531 143.539062 34.832031 148.980469 32.792969 "/>
</g>
<g clip-path="url(#clip2)" clip-rule="nonzero">
<path style=" stroke:none;fill-rule:nonzero;fill:rgb(94.117647%,94.117647%,94.117647%);fill-opacity:1;" d="M 130.242188 156.300781 L 120.71875 156.300781 L 120.71875 68.699219 L 155.234375 68.699219 C 158.09375 68.699219 160.871094 69.03125 163.566406 69.699219 C 166.265625 70.382812 168.710938 71.636719 170.898438 73.460938 C 173.074219 75.285156 174.796875 77.878906 176.066406 81.242188 C 177.335938 84.625 177.96875 89.054688 177.96875 94.527344 C 177.96875 99.289062 177.453125 103.191406 176.421875 106.238281 C 175.390625 109.304688 174.042969 111.722656 172.375 113.5 C 170.710938 115.292969 168.910156 116.609375 166.972656 117.453125 C 165.019531 118.277344 163.132812 118.847656 161.304688 119.164062 L 179.28125 156.300781 L 169.636719 156.300781 L 152.617188 120.472656 C 151.351562 120.472656 149.761719 120.4375 147.859375 120.355469 C 145.953125 120.277344 143.929688 120.238281 141.789062 120.238281 C 139.644531 120.238281 137.566406 120.195312 135.550781 120.117188 C 133.519531 120.039062 131.75 119.996094 130.242188 119.996094 Z M 130.242188 77.269531 L 130.242188 112.738281 L 153.808594 112.738281 C 155.871094 112.738281 157.777344 112.5 159.523438 112.023438 C 161.265625 111.546875 162.816406 110.652344 164.164062 109.332031 C 165.511719 108.03125 166.585938 106.191406 167.375 103.8125 C 168.171875 101.429688 168.566406 98.335938 168.566406 94.527344 C 168.566406 90.875 168.171875 87.917969 167.375 85.648438 C 166.585938 83.394531 165.496094 81.648438 164.117188 80.410156 C 162.71875 79.191406 161.148438 78.355469 159.402344 77.914062 C 157.65625 77.484375 155.792969 77.269531 153.808594 77.269531 Z M 130.242188 77.269531 "/>
</g>
</g>
</svg>
